<?xml version="1.0" standalone="no"?>
<!DOCTYPE svg PUBLIC "-//W3C//DTD SVG 20010904//EN"
 "http://www.w3.org/TR/2001/REC-SVG-20010904/DTD/svg10.dtd">
<svg version="1.0" xmlns="http://www.w3.org/2000/svg"
 width="500.000000pt" height="500.000000pt" viewBox="0 0 500.000000 500.000000"
 preserveAspectRatio="xMidYMid meet">
<metadata>
Created by potrace 1.10, written by Peter Selinger 2001-2011
</metadata>
<g transform="translate(0.000000,500.000000) scale(0.100000,-0.100000)"
fill="#000000" stroke="none">
<path d="M3950 4505 l-95 -95 123 -123 c67 -67 122 -126 122 -130 0 -4 -255
-7 -568 -7 l-568 0 -354 -355 c-195 -195 -357 -355 -361 -355 -3 0 -165 160
-360 355 l-354 355 -767 0 -768 0 0 -135 0 -135 643 0 643 0 282 -282 282
-283 -878 -5 c-839 -5 -878 -6 -908 -24 -56 -33 -64 -67 -64 -254 0 -184 8
-216 63 -256 24 -18 46 -22 141 -24 l112 -4 129 -451 c70 -249 184 -648 252
-887 67 -239 130 -455 139 -479 9 -24 32 -61 51 -82 66 -73 -17 -69 1364 -69
1364 0 1289 -3 1356 62 42 40 44 47 163 463 55 193 171 596 257 897 l156 546
113 4 c95 2 117 6 141 24 55 40 63 72 63 251 0 185 -10 227 -63 259 -31 18
-62 19 -915 24 l-883 5 279 283 279 282 458 0 457 0 -38 -42 c-21 -24 -76 -78
-121 -122 -46 -43 -83 -84 -83 -90 0 -14 171 -186 185 -186 6 0 108 98 228
218 l217 217 0 135 0 135 -228 228 -227 227 -95 -95z m-2429 -2063 c55 -24
111 -80 141 -141 23 -45 23 -51 23 -381 0 -384 -3 -403 -71 -479 -136 -152
-380 -113 -465 73 -17 38 -19 70 -19 391 0 346 0 351 24 400 28 62 99 126 163
148 60 21 144 16 204 -11z m858 -6 c53 -27 90 -66 124 -130 22 -40 22 -49 22
-401 0 -354 0 -361 -23 -402 -108 -202 -388 -208 -498 -10 l-29 52 -3 348 -3
348 26 57 c40 88 101 140 190 163 50 13 141 1 194 -25z m824 9 c55 -23 117
-83 143 -140 24 -49 24 -54 24 -401 l0 -350 -26 -52 c-87 -174 -323 -208 -455
-65 -75 82 -74 75 -74 468 0 340 1 351 22 395 36 75 100 131 175 156 51 16
138 12 191 -11z"/>
</g>
</svg>
